<svg width="20" height="20" viewBox="0 0 20 20" fill="none" xmlns="http://www.w3.org/2000/svg">
<path d="M19 4.77474C18.3375 5.0759 17.6266 5.28015 16.8798 5.37133C17.6424 4.90282 18.2261 4.1597 18.5028 3.27694C17.7875 3.71081 16.9978 4.02585 16.1565 4.19664C15.4828 3.45928 14.5244 3 13.4615 3C11.4223 3 9.76881 4.69628 9.76881 6.78721C9.76881 7.08376 9.80143 7.3734 9.86443 7.65037C6.79601 7.49225 4.07515 5.98407 2.25412 3.69234C1.9358 4.25086 1.75471 4.90165 1.75471 5.59634C1.75471 6.91068 2.40709 8.07039 3.39692 8.74888C2.79177 8.72812 2.22262 8.55733 1.72435 8.27346V8.32077C1.72435 10.1555 2.99762 11.6868 4.68592 12.0353C4.37659 12.1207 4.05042 12.168 3.71297 12.168C3.47453 12.168 3.24394 12.1438 3.01786 12.0976C3.488 13.6035 4.85127 14.6986 6.46648 14.7286C5.20333 15.7441 3.61062 16.3476 1.88071 16.3476C1.58265 16.3476 1.28906 16.3291 1 16.2956C2.63433 17.3723 4.57459 18 6.65995 18C13.4525 18 17.1655 12.228 17.1655 7.22226L17.1531 6.73184C17.8786 6.20099 18.5062 5.53403 19 4.77474Z" fill="black"/>
</svg>
